
<svg xmlns="http://www.w3.org/2000/svg" xmlns:xlink="http://www.w3.org/1999/xlink" height="20" viewBox="0 0 375 70"
  preserveAspectRatio="xMidYMid meet" version="1.0">
  <style>
    .score {
      font: 32px sans-serif;
      fill: #FFFFFF;
    }
  </style>
  <defs>
    <g />
    <clipPath id="d0db585c0d">
      <path d="M 0.0078125 0 L 375 0 L 375 65.390625 L 0.0078125 65.390625 Z M 0.0078125 0 " clip-rule="nonzero" />
    </clipPath>
    <clipPath id="4d5ab05c44">
      <path
        d="M 367.5 65.390625 L 7.5 65.390625 C 3.359375 65.390625 0 62.03125 0 57.890625 L 0 7.496094 C 0 3.355469 3.359375 -0.00390625 7.5 -0.00390625 L 367.5 -0.00390625 C 371.640625 -0.00390625 375 3.355469 375 7.496094 L 375 57.890625 C 375 62.03125 371.640625 65.390625 367.5 65.390625 Z M 367.5 65.390625 "
        clip-rule="nonzero" />
    </clipPath>
    <linearGradient x1="734.013" gradientTransform="matrix(-0.255445, 0, 0, -0.255445, 375.001425, 65.390628)"
      y1="0.0000296526" x2="734.013" gradientUnits="userSpaceOnUse" y2="255.987181" id="caddf134ae">
      <stop stop-opacity="1" stop-color="rgb(25.898743%, 25.898743%, 25.898743%)" offset="0" />
      <stop stop-opacity="1" stop-color="rgb(26.008606%, 26.008606%, 26.008606%)" offset="0.015625" />
      <stop stop-opacity="1" stop-color="rgb(26.229858%, 26.229858%, 26.229858%)" offset="0.03125" />
      <stop stop-opacity="1" stop-color="rgb(26.449585%, 26.449585%, 26.449585%)" offset="0.046875" />
      <stop stop-opacity="1" stop-color="rgb(26.669312%, 26.669312%, 26.669312%)" offset="0.0625" />
      <stop stop-opacity="1" stop-color="rgb(26.890564%, 26.890564%, 26.890564%)" offset="0.078125" />
      <stop stop-opacity="1" stop-color="rgb(27.110291%, 27.110291%, 27.110291%)" offset="0.09375" />
      <stop stop-opacity="1" stop-color="rgb(27.331543%, 27.331543%, 27.331543%)" offset="0.109375" />
      <stop stop-opacity="1" stop-color="rgb(27.55127%, 27.55127%, 27.55127%)" offset="0.125" />
      <stop stop-opacity="1" stop-color="rgb(27.770996%, 27.770996%, 27.770996%)" offset="0.140625" />
      <stop stop-opacity="1" stop-color="rgb(27.992249%, 27.992249%, 27.992249%)" offset="0.15625" />
      <stop stop-opacity="1" stop-color="rgb(28.211975%, 28.211975%, 28.211975%)" offset="0.171875" />
      <stop stop-opacity="1" stop-color="rgb(28.431702%, 28.431702%, 28.431702%)" offset="0.1875" />
      <stop stop-opacity="1" stop-color="rgb(28.652954%, 28.652954%, 28.652954%)" offset="0.203125" />
      <stop stop-opacity="1" stop-color="rgb(28.872681%, 28.872681%, 28.872681%)" offset="0.21875" />
      <stop stop-opacity="1" stop-color="rgb(29.093933%, 29.093933%, 29.093933%)" offset="0.234375" />
      <stop stop-opacity="1" stop-color="rgb(29.31366%, 29.31366%, 29.31366%)" offset="0.25" />
      <stop stop-opacity="1" stop-color="rgb(29.533386%, 29.533386%, 29.533386%)" offset="0.265625" />
      <stop stop-opacity="1" stop-color="rgb(29.754639%, 29.754639%, 29.754639%)" offset="0.28125" />
      <stop stop-opacity="1" stop-color="rgb(29.974365%, 29.974365%, 29.974365%)" offset="0.296875" />
      <stop stop-opacity="1" stop-color="rgb(30.194092%, 30.194092%, 30.194092%)" offset="0.3125" />
      <stop stop-opacity="1" stop-color="rgb(30.415344%, 30.415344%, 30.415344%)" offset="0.328125" />
      <stop stop-opacity="1" stop-color="rgb(30.635071%, 30.635071%, 30.635071%)" offset="0.34375" />
      <stop stop-opacity="1" stop-color="rgb(30.856323%, 30.856323%, 30.856323%)" offset="0.359375" />
      <stop stop-opacity="1" stop-color="rgb(31.07605%, 31.07605%, 31.07605%)" offset="0.375" />
      <stop stop-opacity="1" stop-color="rgb(31.295776%, 31.295776%, 31.295776%)" offset="0.390625" />
      <stop stop-opacity="1" stop-color="rgb(31.517029%, 31.517029%, 31.517029%)" offset="0.40625" />
      <stop stop-opacity="1" stop-color="rgb(31.736755%, 31.736755%, 31.736755%)" offset="0.421875" />
      <stop stop-opacity="1" stop-color="rgb(31.956482%, 31.956482%, 31.956482%)" offset="0.4375" />
      <stop stop-opacity="1" stop-color="rgb(32.177734%, 32.177734%, 32.177734%)" offset="0.453125" />
      <stop stop-opacity="1" stop-color="rgb(32.397461%, 32.397461%, 32.397461%)" offset="0.46875" />
      <stop stop-opacity="1" stop-color="rgb(32.618713%, 32.618713%, 32.618713%)" offset="0.484375" />
      <stop stop-opacity="1" stop-color="rgb(32.83844%, 32.83844%, 32.83844%)" offset="0.5" />
      <stop stop-opacity="1" stop-color="rgb(33.058167%, 33.058167%, 33.058167%)" offset="0.515625" />
      <stop stop-opacity="1" stop-color="rgb(33.279419%, 33.279419%, 33.279419%)" offset="0.53125" />
      <stop stop-opacity="1" stop-color="rgb(33.499146%, 33.499146%, 33.499146%)" offset="0.546875" />
      <stop stop-opacity="1" stop-color="rgb(33.720398%, 33.720398%, 33.720398%)" offset="0.5625" />
      <stop stop-opacity="1" stop-color="rgb(33.940125%, 33.940125%, 33.940125%)" offset="0.578125" />
      <stop stop-opacity="1" stop-color="rgb(34.159851%, 34.159851%, 34.159851%)" offset="0.59375" />
      <stop stop-opacity="1" stop-color="rgb(34.381104%, 34.381104%, 34.381104%)" offset="0.609375" />
      <stop stop-opacity="1" stop-color="rgb(34.60083%, 34.60083%, 34.60083%)" offset="0.625" />
      <stop stop-opacity="1" stop-color="rgb(34.820557%, 34.820557%, 34.820557%)" offset="0.640625" />
      <stop stop-opacity="1" stop-color="rgb(35.041809%, 35.041809%, 35.041809%)" offset="0.65625" />
      <stop stop-opacity="1" stop-color="rgb(35.261536%, 35.261536%, 35.261536%)" offset="0.671875" />
      <stop stop-opacity="1" stop-color="rgb(35.482788%, 35.482788%, 35.482788%)" offset="0.6875" />
      <stop stop-opacity="1" stop-color="rgb(35.702515%, 35.702515%, 35.702515%)" offset="0.703125" />
      <stop stop-opacity="1" stop-color="rgb(35.922241%, 35.922241%, 35.922241%)" offset="0.71875" />
      <stop stop-opacity="1" stop-color="rgb(36.143494%, 36.143494%, 36.143494%)" offset="0.734375" />
      <stop stop-opacity="1" stop-color="rgb(36.36322%, 36.36322%, 36.36322%)" offset="0.75" />
      <stop stop-opacity="1" stop-color="rgb(36.582947%, 36.582947%, 36.582947%)" offset="0.765625" />
      <stop stop-opacity="1" stop-color="rgb(36.804199%, 36.804199%, 36.804199%)" offset="0.78125" />
      <stop stop-opacity="1" stop-color="rgb(37.023926%, 37.023926%, 37.023926%)" offset="0.796875" />
      <stop stop-opacity="1" stop-color="rgb(37.245178%, 37.245178%, 37.245178%)" offset="0.8125" />
      <stop stop-opacity="1" stop-color="rgb(37.464905%, 37.464905%, 37.464905%)" offset="0.828125" />
      <stop stop-opacity="1" stop-color="rgb(37.684631%, 37.684631%, 37.684631%)" offset="0.84375" />
      <stop stop-opacity="1" stop-color="rgb(37.905884%, 37.905884%, 37.905884%)" offset="0.859375" />
      <stop stop-opacity="1" stop-color="rgb(38.12561%, 38.12561%, 38.12561%)" offset="0.875" />
      <stop stop-opacity="1" stop-color="rgb(38.345337%, 38.345337%, 38.345337%)" offset="0.890625" />
      <stop stop-opacity="1" stop-color="rgb(38.566589%, 38.566589%, 38.566589%)" offset="0.90625" />
      <stop stop-opacity="1" stop-color="rgb(38.786316%, 38.786316%, 38.786316%)" offset="0.921875" />
      <stop stop-opacity="1" stop-color="rgb(39.007568%, 39.007568%, 39.007568%)" offset="0.9375" />
      <stop stop-opacity="1" stop-color="rgb(39.227295%, 39.227295%, 39.227295%)" offset="0.953125" />
      <stop stop-opacity="1" stop-color="rgb(39.447021%, 39.447021%, 39.447021%)" offset="0.96875" />
      <stop stop-opacity="1" stop-color="rgb(39.668274%, 39.668274%, 39.668274%)" offset="0.984375" />
      <stop stop-opacity="1" stop-color="rgb(39.888%, 39.888%, 39.888%)" offset="1" />
    </linearGradient>
    <clipPath id="1f0c792d95">
      <path
        d="M 26.027344 16.171875 L 64.179688 16.171875 L 64.179688 49.210938 L 26.027344 49.210938 Z M 26.027344 16.171875 "
        clip-rule="nonzero" />
    </clipPath>
    <clipPath id="6a1d65ec09">
      <path d="M 64.179688 16.171875 L 45.105469 49.210938 L 26.027344 16.171875 Z M 64.179688 16.171875 "
        clip-rule="nonzero" />
    </clipPath>
    <clipPath id="5c146b7c7e">
      <path
        d="M 35.566406 16.167969 L 54.640625 16.167969 L 54.640625 32.6875 L 35.566406 32.6875 Z M 35.566406 16.167969 "
        clip-rule="nonzero" />
    </clipPath>
    <clipPath id="8be9d95980">
      <path d="M 54.640625 16.167969 L 45.101562 32.6875 L 35.566406 16.167969 Z M 54.640625 16.167969 "
        clip-rule="nonzero" />
    </clipPath>
    <clipPath id="5f36c2f0d9">
      <path
        d="M 26.027344 16.167969 L 45.101562 16.167969 L 45.101562 32.6875 L 26.027344 32.6875 Z M 26.027344 16.167969 "
        clip-rule="nonzero" />
    </clipPath>
    <clipPath id="b2f5d321c1">
      <path d="M 45.101562 16.167969 L 35.566406 32.6875 L 26.027344 16.167969 Z M 45.101562 16.167969 "
        clip-rule="nonzero" />
    </clipPath>
    <clipPath id="cbc9386c44">
      <path
        d="M 290.523438 0.324219 L 374.996094 0.324219 L 374.996094 65.066406 L 290.523438 65.066406 Z M 290.523438 0.324219 "
        clip-rule="nonzero" />
    </clipPath>
    <clipPath id="08118f1641">
      <path
        d="M 367.496094 65.066406 L 298.132812 65.066406 C 293.992188 65.066406 290.632812 61.710938 290.632812 57.566406 L 290.632812 7.824219 C 290.632812 3.679688 293.992188 0.324219 298.132812 0.324219 L 367.496094 0.324219 C 371.640625 0.324219 374.996094 3.679688 374.996094 7.824219 L 374.996094 57.566406 C 374.996094 61.710938 371.640625 65.066406 367.496094 65.066406 Z M 367.496094 65.066406 "
        clip-rule="nonzero" />
    </clipPath>
    <clipPath id="bb8ccd363c">
      <path
        d="M 290.636719 0.324219 L 366.921875 0.324219 L 366.921875 65.070312 L 290.636719 65.070312 Z M 290.636719 0.324219 "
        clip-rule="nonzero" />
    </clipPath>
  </defs>
  <g clip-path="url(#d0db585c0d)">
    <g clip-path="url(#4d5ab05c44)">
      <path fill="url(#caddf134ae)" d="M 375 65.390625 L 375 0 L 0.0078125 0 L 0.0078125 65.390625 Z M 375 65.390625 "
        fill-rule="nonzero" />
    </g>
  </g>
  <g fill="#ffbd59" fill-opacity="1">
    <g transform="translate(71.550689, 46.816421)">
      <g>
        <path
          d="M 1.75 -30.53125 L 15.796875 -30.53125 C 16.203125 -30.53125 16.40625 -30.328125 16.40625 -29.921875 L 16.40625 -26.109375 C 16.40625 -25.703125 16.203125 -25.5 15.796875 -25.5 L 11.375 -25.5 L 11.375 -0.609375 C 11.375 -0.203125 11.171875 0 10.765625 0 L 6.796875 0 C 6.390625 0 6.1875 -0.203125 6.1875 -0.609375 L 6.1875 -25.5 L 1.75 -25.5 C 1.34375 -25.5 1.140625 -25.703125 1.140625 -26.109375 L 1.140625 -29.921875 C 1.140625 -30.328125 1.34375 -30.53125 1.75 -30.53125 Z M 1.75 -30.53125 " />
      </g>
    </g>
  </g>
  <g fill="#ffbd59" fill-opacity="1">
    <g transform="translate(90.63472, 46.816421)">
      <g>
        <path
          d="M 17.59375 -25.046875 L 17.59375 -15.734375 C 17.59375 -13.179688 16.664062 -11.5 14.8125 -10.6875 L 17.4375 -0.6875 C 17.570312 -0.226562 17.394531 0 16.90625 0 L 12.9375 0 C 12.582031 0 12.367188 -0.175781 12.296875 -0.53125 L 9.734375 -10.234375 L 7.09375 -10.234375 L 7.09375 -0.609375 C 7.09375 -0.203125 6.890625 0 6.484375 0 L 2.515625 0 C 2.109375 0 1.90625 -0.203125 1.90625 -0.609375 L 1.90625 -29.921875 C 1.90625 -30.328125 2.109375 -30.53125 2.515625 -30.53125 L 12.09375 -30.53125 C 13.90625 -30.53125 15.273438 -30.066406 16.203125 -29.140625 C 17.128906 -28.210938 17.59375 -26.847656 17.59375 -25.046875 Z M 7.09375 -15.265625 L 10.875 -15.265625 C 11.894531 -15.265625 12.40625 -15.773438 12.40625 -16.796875 L 12.40625 -23.96875 C 12.40625 -24.988281 11.894531 -25.5 10.875 -25.5 L 7.09375 -25.5 Z M 7.09375 -15.265625 " />
      </g>
    </g>
  </g>
  <g fill="#ffbd59" fill-opacity="1">
    <g transform="translate(111.665239, 46.816421)">
      <g>
        <path
          d="M 12.90625 -30.53125 L 16.40625 -30.53125 C 16.613281 -30.53125 16.789062 -30.453125 16.9375 -30.296875 C 17.09375 -30.148438 17.171875 -29.976562 17.171875 -29.78125 L 17.171875 -5.5 C 17.171875 -3.71875 16.707031 -2.351562 15.78125 -1.40625 C 14.851562 -0.46875 13.488281 0 11.6875 0 L 7.40625 0 C 5.625 0 4.257812 -0.46875 3.3125 -1.40625 C 2.375 -2.351562 1.90625 -3.71875 1.90625 -5.5 L 1.90625 -29.78125 C 1.90625 -29.976562 1.976562 -30.148438 2.125 -30.296875 C 2.28125 -30.453125 2.460938 -30.53125 2.671875 -30.53125 L 6.34375 -30.53125 C 6.539062 -30.53125 6.710938 -30.453125 6.859375 -30.296875 C 7.015625 -30.148438 7.09375 -29.976562 7.09375 -29.78125 L 7.09375 -6.5625 C 7.09375 -5.539062 7.601562 -5.03125 8.625 -5.03125 L 10.609375 -5.03125 C 11.628906 -5.03125 12.140625 -5.539062 12.140625 -6.5625 L 12.140625 -29.78125 C 12.140625 -29.976562 12.210938 -30.148438 12.359375 -30.296875 C 12.515625 -30.453125 12.695312 -30.53125 12.90625 -30.53125 Z M 12.90625 -30.53125 " />
      </g>
    </g>
  </g>
  <g fill="#ffbd59" fill-opacity="1">
    <g transform="translate(132.27592, 46.816421)">
      <g>
        <path
          d="M 7.40625 -30.53125 L 11.6875 -30.53125 C 13.488281 -30.53125 14.851562 -30.066406 15.78125 -29.140625 C 16.707031 -28.210938 17.171875 -26.847656 17.171875 -25.046875 L 17.171875 -21 C 17.171875 -20.59375 16.96875 -20.390625 16.5625 -20.390625 L 12.59375 -20.390625 C 12.1875 -20.390625 11.984375 -20.59375 11.984375 -21 L 11.984375 -23.96875 C 11.984375 -24.988281 11.472656 -25.5 10.453125 -25.5 L 8.625 -25.5 C 7.601562 -25.5 7.09375 -24.988281 7.09375 -23.96875 L 7.09375 -18.703125 L 16.1875 -15.734375 C 16.84375 -15.453125 17.171875 -14.976562 17.171875 -14.3125 L 17.171875 -5.5 C 17.171875 -3.71875 16.707031 -2.351562 15.78125 -1.40625 C 14.851562 -0.46875 13.488281 0 11.6875 0 L 7.40625 0 C 5.625 0 4.257812 -0.46875 3.3125 -1.40625 C 2.375 -2.351562 1.90625 -3.71875 1.90625 -5.5 L 1.90625 -9.5 C 1.90625 -9.90625 2.109375 -10.109375 2.515625 -10.109375 L 6.484375 -10.109375 C 6.890625 -10.109375 7.09375 -9.90625 7.09375 -9.5 L 7.09375 -6.5625 C 7.09375 -5.539062 7.601562 -5.03125 8.625 -5.03125 L 10.453125 -5.03125 C 11.472656 -5.03125 11.984375 -5.539062 11.984375 -6.5625 L 11.984375 -11.640625 L 2.9375 -14.625 C 2.25 -14.851562 1.90625 -15.320312 1.90625 -16.03125 L 1.90625 -25.046875 C 1.90625 -26.847656 2.375 -28.210938 3.3125 -29.140625 C 4.257812 -30.066406 5.625 -30.53125 7.40625 -30.53125 Z M 7.40625 -30.53125 " />
      </g>
    </g>
  </g>
  <g fill="#ffbd59" fill-opacity="1">
    <g transform="translate(152.886602, 46.816421)">
      <g>
        <path
          d="M 1.75 -30.53125 L 15.796875 -30.53125 C 16.203125 -30.53125 16.40625 -30.328125 16.40625 -29.921875 L 16.40625 -26.109375 C 16.40625 -25.703125 16.203125 -25.5 15.796875 -25.5 L 11.375 -25.5 L 11.375 -0.609375 C 11.375 -0.203125 11.171875 0 10.765625 0 L 6.796875 0 C 6.390625 0 6.1875 -0.203125 6.1875 -0.609375 L 6.1875 -25.5 L 1.75 -25.5 C 1.34375 -25.5 1.140625 -25.703125 1.140625 -26.109375 L 1.140625 -29.921875 C 1.140625 -30.328125 1.34375 -30.53125 1.75 -30.53125 Z M 1.75 -30.53125 " />
      </g>
    </g>
  </g>
  <g fill="#ffffff" fill-opacity="1">
    <g transform="translate(171.982213, 46.816421)">
      <g>
        <path
          d="M 7.40625 -30.53125 L 11.6875 -30.53125 C 13.488281 -30.53125 14.851562 -30.066406 15.78125 -29.140625 C 16.707031 -28.210938 17.171875 -26.847656 17.171875 -25.046875 L 17.171875 -21 C 17.171875 -20.59375 16.96875 -20.390625 16.5625 -20.390625 L 12.59375 -20.390625 C 12.1875 -20.390625 11.984375 -20.59375 11.984375 -21 L 11.984375 -23.96875 C 11.984375 -24.988281 11.472656 -25.5 10.453125 -25.5 L 8.625 -25.5 C 7.601562 -25.5 7.09375 -24.988281 7.09375 -23.96875 L 7.09375 -18.703125 L 16.1875 -15.734375 C 16.84375 -15.453125 17.171875 -14.976562 17.171875 -14.3125 L 17.171875 -5.5 C 17.171875 -3.71875 16.707031 -2.351562 15.78125 -1.40625 C 14.851562 -0.46875 13.488281 0 11.6875 0 L 7.40625 0 C 5.625 0 4.257812 -0.46875 3.3125 -1.40625 C 2.375 -2.351562 1.90625 -3.71875 1.90625 -5.5 L 1.90625 -9.5 C 1.90625 -9.90625 2.109375 -10.109375 2.515625 -10.109375 L 6.484375 -10.109375 C 6.890625 -10.109375 7.09375 -9.90625 7.09375 -9.5 L 7.09375 -6.5625 C 7.09375 -5.539062 7.601562 -5.03125 8.625 -5.03125 L 10.453125 -5.03125 C 11.472656 -5.03125 11.984375 -5.539062 11.984375 -6.5625 L 11.984375 -11.640625 L 2.9375 -14.625 C 2.25 -14.851562 1.90625 -15.320312 1.90625 -16.03125 L 1.90625 -25.046875 C 1.90625 -26.847656 2.375 -28.210938 3.3125 -29.140625 C 4.257812 -30.066406 5.625 -30.53125 7.40625 -30.53125 Z M 7.40625 -30.53125 " />
      </g>
    </g>
  </g>
  <g fill="#ffffff" fill-opacity="1">
    <g transform="translate(192.592894, 46.816421)">
      <g>
        <path
          d="M 17.21875 -25.046875 L 17.21875 -20.921875 C 17.21875 -20.515625 17.015625 -20.3125 16.609375 -20.3125 L 12.78125 -20.3125 C 12.375 -20.3125 12.171875 -20.515625 12.171875 -20.921875 L 12.171875 -23.96875 C 12.171875 -24.988281 11.664062 -25.5 10.65625 -25.5 L 8.671875 -25.5 C 7.648438 -25.5 7.140625 -24.988281 7.140625 -23.96875 L 7.140625 -6.5625 C 7.140625 -5.539062 7.648438 -5.03125 8.671875 -5.03125 L 10.65625 -5.03125 C 11.664062 -5.03125 12.171875 -5.539062 12.171875 -6.5625 L 12.171875 -9.625 C 12.171875 -10.03125 12.375 -10.234375 12.78125 -10.234375 L 16.609375 -10.234375 C 17.015625 -10.234375 17.21875 -10.03125 17.21875 -9.625 L 17.21875 -5.5 C 17.21875 -3.71875 16.742188 -2.351562 15.796875 -1.40625 C 14.859375 -0.46875 13.5 0 11.71875 0 L 7.4375 0 C 5.65625 0 4.285156 -0.46875 3.328125 -1.40625 C 2.378906 -2.351562 1.90625 -3.71875 1.90625 -5.5 L 1.90625 -25.046875 C 1.90625 -26.847656 2.378906 -28.210938 3.328125 -29.140625 C 4.285156 -30.066406 5.65625 -30.53125 7.4375 -30.53125 L 11.71875 -30.53125 C 13.5 -30.53125 14.859375 -30.066406 15.796875 -29.140625 C 16.742188 -28.210938 17.21875 -26.847656 17.21875 -25.046875 Z M 17.21875 -25.046875 " />
      </g>
    </g>
  </g>
  <g fill="#ffffff" fill-opacity="1">
    <g transform="translate(213.241742, 46.816421)">
      <g>
        <path
          d="M 1.90625 -5.5 L 1.90625 -25.046875 C 1.90625 -26.847656 2.375 -28.210938 3.3125 -29.140625 C 4.257812 -30.066406 5.625 -30.53125 7.40625 -30.53125 L 11.6875 -30.53125 C 13.488281 -30.53125 14.851562 -30.066406 15.78125 -29.140625 C 16.707031 -28.210938 17.171875 -26.847656 17.171875 -25.046875 L 17.171875 -5.5 C 17.171875 -3.71875 16.707031 -2.351562 15.78125 -1.40625 C 14.851562 -0.46875 13.488281 0 11.6875 0 L 7.40625 0 C 5.625 0 4.257812 -0.46875 3.3125 -1.40625 C 2.375 -2.351562 1.90625 -3.71875 1.90625 -5.5 Z M 8.515625 -4.921875 L 10.71875 -4.921875 C 11.738281 -4.921875 12.25 -5.429688 12.25 -6.453125 L 12.25 -24.09375 C 12.25 -25.101562 11.738281 -25.609375 10.71875 -25.609375 L 8.515625 -25.609375 C 7.492188 -25.609375 6.984375 -25.101562 6.984375 -24.09375 L 6.984375 -6.453125 C 6.984375 -5.429688 7.492188 -4.921875 8.515625 -4.921875 Z M 8.515625 -4.921875 " />
      </g>
    </g>
  </g>
  <g fill="#ffffff" fill-opacity="1">
    <g transform="translate(233.852424, 46.816421)">
      <g>
        <path
          d="M 17.59375 -25.046875 L 17.59375 -15.734375 C 17.59375 -13.179688 16.664062 -11.5 14.8125 -10.6875 L 17.4375 -0.6875 C 17.570312 -0.226562 17.394531 0 16.90625 0 L 12.9375 0 C 12.582031 0 12.367188 -0.175781 12.296875 -0.53125 L 9.734375 -10.234375 L 7.09375 -10.234375 L 7.09375 -0.609375 C 7.09375 -0.203125 6.890625 0 6.484375 0 L 2.515625 0 C 2.109375 0 1.90625 -0.203125 1.90625 -0.609375 L 1.90625 -29.921875 C 1.90625 -30.328125 2.109375 -30.53125 2.515625 -30.53125 L 12.09375 -30.53125 C 13.90625 -30.53125 15.273438 -30.066406 16.203125 -29.140625 C 17.128906 -28.210938 17.59375 -26.847656 17.59375 -25.046875 Z M 7.09375 -15.265625 L 10.875 -15.265625 C 11.894531 -15.265625 12.40625 -15.773438 12.40625 -16.796875 L 12.40625 -23.96875 C 12.40625 -24.988281 11.894531 -25.5 10.875 -25.5 L 7.09375 -25.5 Z M 7.09375 -15.265625 " />
      </g>
    </g>
  </g>
  <g fill="#ffffff" fill-opacity="1">
    <g transform="translate(254.882943, 46.816421)">
      <g>
        <path
          d="M 17.140625 -29.921875 L 17.140625 -26.109375 C 17.140625 -25.671875 16.9375 -25.453125 16.53125 -25.453125 L 6.984375 -25.453125 L 6.984375 -17.828125 L 14.28125 -17.828125 C 14.6875 -17.828125 14.890625 -17.609375 14.890625 -17.171875 L 14.890625 -13.390625 C 14.890625 -12.960938 14.6875 -12.75 14.28125 -12.75 L 6.984375 -12.75 L 6.984375 -5.03125 L 16.53125 -5.03125 C 16.9375 -5.03125 17.140625 -4.828125 17.140625 -4.421875 L 17.140625 -0.609375 C 17.140625 -0.203125 16.9375 0 16.53125 0 L 2.484375 0 C 2.097656 0 1.90625 -0.203125 1.90625 -0.609375 L 1.90625 -29.921875 C 1.90625 -30.328125 2.097656 -30.53125 2.484375 -30.53125 L 16.53125 -30.53125 C 16.9375 -30.53125 17.140625 -30.328125 17.140625 -29.921875 Z M 17.140625 -29.921875 " />
      </g>
    </g>
  </g>
  <g clip-path="url(#1f0c792d95)">
    <g clip-path="url(#6a1d65ec09)">
      <path fill="#ffbd59"
        d="M 64.179688 49.210938 L 26.027344 49.210938 L 26.027344 16.171875 L 64.179688 16.171875 Z M 64.179688 49.210938 "
        fill-opacity="1" fill-rule="nonzero" />
    </g>
  </g>
  <g clip-path="url(#5c146b7c7e)">
    <g clip-path="url(#8be9d95980)">
      <path fill="#ffffff"
        d="M 54.640625 32.6875 L 35.566406 32.6875 L 35.566406 16.167969 L 54.640625 16.167969 Z M 54.640625 32.6875 "
        fill-opacity="1" fill-rule="nonzero" />
    </g>
  </g>
  <g clip-path="url(#5f36c2f0d9)">
    <g clip-path="url(#b2f5d321c1)">
      <path fill="#ffffff"
        d="M 45.101562 32.6875 L 26.027344 32.6875 L 26.027344 16.167969 L 45.101562 16.167969 Z M 45.101562 32.6875 "
        fill-opacity="1" fill-rule="nonzero" />
    </g>
  </g>
  <g clip-path="url(#cbc9386c44)">
    <g clip-path="url(#08118f1641)">
      <path fill="#ffbd59"
        d="M 374.996094 65.066406 L 290.523438 65.066406 L 290.523438 0.324219 L 374.996094 0.324219 Z M 374.996094 65.066406 "
        fill-opacity="1" fill-rule="nonzero" />
    </g>
  </g>
  <g clip-path="url(#bb8ccd363c)">
    <path fill="#ffbd59"
      d="M 290.636719 0.324219 L 367.015625 0.324219 L 367.015625 65.070312 L 290.636719 65.070312 Z M 290.636719 0.324219 "
      fill-opacity="1" fill-rule="nonzero" />
  </g>
  <text x="308" y="45" class="score">1.9</text>

</svg>
